<?xml version="1.0" encoding="UTF-8" standalone="no"?>
<svg
   xmlns:dc="http://purl.org/dc/elements/1.1/"
   xmlns:cc="http://creativecommons.org/ns#"
   xmlns:rdf="http://www.w3.org/1999/02/22-rdf-syntax-ns#"
   xmlns:svg="http://www.w3.org/2000/svg"
   xmlns="http://www.w3.org/2000/svg"
   xmlns:sodipodi="http://sodipodi.sourceforge.net/DTD/sodipodi-0.dtd"
   xmlns:inkscape="http://www.inkscape.org/namespaces/inkscape"
   viewBox="0 0 230 134.99822"
   version="1.1"
   id="svg22"
   sodipodi:docname="book.svg"
   width="230"
   height="135"
   inkscape:version="0.92.5 (2060ec1f9f, 2020-04-08)">
  <metadata
     id="metadata28">
    <rdf:RDF>
      <cc:Work
         rdf:about="">
        <dc:format>image/svg+xml</dc:format>
        <dc:type
           rdf:resource="http://purl.org/dc/dcmitype/StillImage" />
        <dc:title />
      </cc:Work>
    </rdf:RDF>
  </metadata>
  <defs
     id="defs26" />
  <sodipodi:namedview
     pagecolor="#ffffff"
     bordercolor="#666666"
     borderopacity="1"
     objecttolerance="10"
     gridtolerance="10"
     guidetolerance="10"
     inkscape:pageopacity="0"
     inkscape:pageshadow="2"
     inkscape:window-width="1860"
     inkscape:window-height="1136"
     id="namedview24"
     showgrid="false"
     viewbox-height="304.01"
     inkscape:zoom="2.1956515"
     inkscape:cx="-103.24446"
     inkscape:cy="-16.435871"
     inkscape:window-x="0"
     inkscape:window-y="0"
     inkscape:window-maximized="1"
     inkscape:current-layer="svg22" />
  <path
     style="fill-rule:evenodd;stroke-width:1.35329998;stroke:none;stroke-opacity:0;fill:#3f51b5;fill-opacity:1"
     inkscape:connector-curvature="0"
     id="path1"
     d="M 25.0019,132.37811 V 31.080254 l 13.268648,0.0833 -0.0254,-5.962688 c 3.90094,-2.041444 8.423509,-3.784754 13.301565,-5.187339 L 51.532603,6.186107 C 59.276174,3.8871831 69.073664,2.49911 79.738242,2.49911 c 14.257043,0 27.074298,2.6319135 35.380248,6.462158 8.30595,-3.8302445 20.89184,-6.3411616 35.14513,-6.3411616 10.66834,0 20.46206,1.388073 28.20187,3.6869936 l -0.0103,13.82742 c 4.87805,1.402585 9.40062,3.145895 13.30157,5.187339 l -0.0254,5.962688 L 205,31.201347 V 132.49911 l -179.999999,-0.121 z M 173.13039,10.5303 c -6.31129,-1.251582 -14.11693,-2.306672 -22.7464,-2.306672 -13.42663,0 -25.20093,2.598026 -32.69152,5.486444 l -0.0809,90.172028 c 8.23636,-3.29689 19.85924,-5.44094 32.65109,-5.44094 8.33887,0 16.15297,0.8431 22.86487,2.30279 z M 79.799379,117.5198 c -16.81034,0 -31.79435,3.687 -41.566447,9.41156 l 0.04044,-90.161389 -7.957051,0.0833 v 90.085879 l 169.372989,0.121 V 36.732271 l -7.95705,-0.0832 0.0405,90.403379 c -9.7721,-5.72456 -24.75706,-9.41155 -41.57022,-9.41155 -13.50093,0 -25.81128,2.17793 -35.20061,6.07303 -9.3931,-3.8951 -21.703438,-6.19403 -35.20438,-6.19403 z M 56.876187,100.62973 c 6.715673,-1.46357 14.526015,-2.30666 22.864888,-2.30666 12.794664,0 24.414735,2.14792 32.653905,5.44095 l -0.0837,-90.414038 C 105.05955,10.340578 93.163946,7.984544 79.741066,7.984544 c -8.504389,0 -16.380564,1.142199 -22.864888,2.427659 z m 58.068333,9.24507 c -6.77022,-3.55051 -20.017245,-6.06529 -35.203445,-6.06529 -11.039813,0 -20.994355,1.28547 -28.231971,3.34626 l 0.06677,-81.589058 c -2.986834,0.86633 -5.628526,1.947554 -8.18934,3.062647 l 0.191849,89.953271 c 9.96959,-4.0916 22.551719,-6.55313 36.22475,-6.55313 13.214104,0 25.391847,2.15953 35.200627,6.00817 9.80877,-3.84864 21.98651,-5.88718 35.20061,-5.88718 13.67304,0 26.25423,2.34054 36.22476,6.43214 l 0.18714,-89.832275 c -2.55611,-1.118973 -5.1978,-2.196317 -8.18463,-3.062647 l -0.0517,82.194042 c -7.23667,-2.06081 -17.07459,-3.95125 -28.11347,-3.95125 -15.18714,0 -28.55077,2.51478 -35.32192,6.06528" />
</svg>
