<svg xmlns="http://www.w3.org/2000/svg" viewBox="0 0 230 135">
  <defs/>
  <path fill="#3f51b5" fill-rule="evenodd" d="M25 132.4V31h13.3v-5.9c3.8-2 8.4-3.8 13.2-5.2V6.2c7.8-2.3 17.6-3.7 28.2-3.7A89 89 0 01115.1 9a88 88 0 0135.2-6.4c10.6 0 20.4 1.4 28.2 3.7v13.8c4.8 1.4 9.4 3.2 13.3 5.2v6l13.2-.1v101.3l-180-.1zM173.1 10.5c-6.3-1.2-14-2.3-22.7-2.3a95 95 0 00-32.7 5.5V104a109 109 0 0155.5-3.1zm-93.3 107a85.4 85.4 0 00-41.6 9.4V36.8h-7.9V127l169.4.2V36.7h-8V127a85.4 85.4 0 00-41.5-9.5 94.1 94.1 0 00-35.2 6.1 94 94 0 00-35.2-6.2zm-23-16.9a108.8 108.8 0 0155.6 3.2V13.3C105 10.3 93.1 8 79.6 8A118 118 0 0057 10.4zM115 110a85 85 0 00-35.2-6c-11 0-21 1.2-28.2 3.3V25.6c-3 .8-5.6 2-8.1 3l.2 90a97 97 0 0136.2-6.6c13.2 0 25.4 2.2 35.2 6a98 98 0 0135.2-5.8 97 97 0 0136.2 6.4l.2-89.8a65.7 65.7 0 00-8.2-3.1v82.2c-7.3-2-17-4-28.1-4a85.7 85.7 0 00-35.4 6.1"/>
</svg>
