<svg xmlns="http://www.w3.org/2000/svg" viewBox="0 0 230 135">
  <defs/>
  <path fill="#06aae9" d="M45.3 69.8A33.3 33.3 0 1090.7 114L61 99.2z"/>
  <path fill="#39b54a" d="M92.8 89.2a33.3 33.3 0 00-47.5-19.4L61 99.2z"/>
  <path fill="#ed1c24" d="M92.8 89.2L61 99.2 90.7 114a33.2 33.2 0 002-24.8z"/>
  <g fill="#e91e63">
    <path d="M29.6 2.5h50v7.7h-50zM29.6 17.9h50v7.6h-50zM29.6 33.2h50V41h-50zM29.6 48.6h26.9v7.7h-27z"/>
  </g>
  <g fill="#e91e63">
    <path d="M100.6 2.5h30.7v7.7h-30.7zM100.6 14h30.7v7.7h-30.7zM100.6 25.5H116v7.7h-15.4z"/>
  </g>
  <g fill="#e91e63">
    <path d="M152.4 2.5h50v7.7h-50zM152.4 17.9h50v7.6h-50zM152.4 33.2h50V41h-50zM152.4 48.6h27v7.7h-27z"/>
  </g>
</svg>
